<svg xmlns="http://www.w3.org/2000/svg" viewBox="0 0 563 563" style="color: var(--primary-color)" width="210" height="210"><path style="fill:currentColor; stroke:none;" d="M88 229C92.4688 230.875 98.1913 230 103 230L132 230C127.531 228.125 121.809 229 117 229L88 229z"/><path style="fill:currentColor; stroke:none;" d="M60 335C63.3659 335 69.4625 336.158 72.2724 333.972C76.071 331.018 76.9946 320.5 78.1265 316C80.9074 304.945 84.2172 294.024 87.1157 283C88.4363 277.977 88.8732 270.521 92.0887 266.318C97.5214 259.217 111.748 267.908 118.297 262.972C120.969 260.958 121.372 256.037 122 253L95 253C95.934 249.684 96.357 244.108 99.4298 242.028C104.138 238.84 115.471 241.011 121 241C123.237 240.995 126.375 241.445 128.272 239.972C130.805 238.006 131.328 232.933 132 230L101 230C97.6122 230 91.5749 228.863 88.7029 231.028C86.458 232.72 86.0171 236.467 85.3742 239C83.7569 245.371 81.8673 251.656 80.1512 258C75.7378 274.315 71.4135 290.654 67.1157 307C64.6767 316.277 61.2837 325.467 60 335z"/><path style="fill:#001555; stroke:none;" d="M87 231L88 232L87 231z"/><path style="fill:currentColor; stroke:none;" d="M304 254L309 254C306.916 261.345 300.808 273.447 303.743 280.985C306.109 287.059 318.269 289.92 323.146 285.142C325.667 282.672 326.241 277.312 327 274C324.813 274.607 321.555 276.03 319.357 274.799C317.24 273.613 317.752 270.948 318.174 268.999C319.342 263.614 321.261 258.488 322 253L333 253L335 243L325 243C326.164 239.359 327.225 235.745 328 232C324.545 232 319.488 231.087 316.303 232.603C313.213 234.075 313.619 238.184 311.861 240.687C310.583 242.506 308.32 242.93 306.931 244.584C304.894 247.009 304.444 250.985 304 254z"/><path style="fill:#0f1e69; stroke:none;" d="M327 234L328 235L327 234z"/><path style="fill:#0f2562; stroke:none;" d="M130 235L131 236L130 235z"/><path style="fill:#0c1e4f; stroke:none;" d="M325 241L326 242L325 241z"/>
   <path fill-rule="evenodd" style="fill:currentColor; stroke:none;" d="M147 242.529C125.574 247.474 119.413 283.62 145 286.815C148.217 287.217 151.834 287.201 155 286.471C163.157 284.588 170.547 277.976 173.15 270C177.034 258.096 171.305 243.847 158 242.185C154.491 241.747 150.454 241.732 147 242.529M188 242C185.986 256.947 179.195 271.082 177 286C180.366 286 186.462 287.158 189.272 284.972C191.439 283.287 191.739 279.461 192.424 277C193.858 271.853 194.982 266.279 198.394 262.015C202.185 257.277 207.306 257.549 211.437 254.062C214.412 251.552 214.984 245.579 216 242C208.927 242.059 205.071 244.079 200 249L202 242L188 242M217 271C213.876 273.299 211.553 276.085 209 279C218.656 290.264 250.536 291.235 246.771 270C245.83 264.694 241.409 262.061 237.001 259.756C235.149 258.788 231.207 257.451 231.207 254.846C231.207 247.882 243.135 255.602 245.995 254.698C248.892 253.783 252.635 249.646 250.338 246.638C247.824 243.346 241.845 242.228 238 242.04C228.32 241.566 217.997 244.566 217.228 256C216.859 261.494 220.42 265.546 225.004 268.015C227.549 269.387 231.611 270.295 232.963 273.155C234.248 275.874 231.062 276.863 228.984 276.836C224.392 276.777 220.47 273.645 217 271M262 245L264 255C271.761 254.382 282.279 249.949 284 261C276.897 260.102 267.748 258.314 261.004 261.573C252.447 265.707 249.3 279.493 258.044 285.258C264.373 289.43 272.772 286.216 278 282L277 286L290 286C291.795 272.678 305.826 246.007 284 242.326C281.083 241.834 277.937 241.877 275 242.171C270.568 242.614 266.321 244.012 262 245M340 242C340.222 252.759 343.051 263.309 343.914 274C344.174 277.218 345.792 282.809 343.958 285.681C342.012 288.728 337.885 287.525 335 287C332.785 290.259 330.528 293.367 329 297C331.664 297.971 334.144 298.802 337 298.957C354.443 299.905 360.613 282.608 368.424 270C374.045 260.928 380.771 251.802 385 242C380.99 242 374.884 240.872 371.329 243.028C368.267 244.884 366.821 248.987 365.22 252C362.082 257.907 358.024 263.604 356 270C353.34 261.004 354.707 251.193 353 242L340 242z"/><path style="fill:#0f266b; stroke:none;" d="M97 243L98 244L97 243z"/><path style="fill:#00246d; stroke:none;" d="M384 243L385 244L384 243z"/><path style="fill:#00245b; stroke:none;" d="M369 244L370 245L369 244z"/><path style="fill:#091a58; stroke:none;" d="M83 246L84 247L83 246z"/><path style="fill:#0c1855; stroke:none;" d="M305 247L306 248L305 247z"/><path style="fill:#0f1e5a; stroke:none;" d="M295 249L296 250L295 249z"/><path style="fill:#001249; stroke:none;" d="M171 250L172 251L171 250z"/><path style="fill:currentColor; stroke:none;" d="M232 251C233.769 251.779 235.036 251.912 237 252C235.231 251.221 233.964 251.088 232 251z"/><path style="fill:#0d1a4d; stroke:none;" d="M379 251L380 252L379 251z"/><path style="fill:currentColor; stroke:none;" d="M95 252C102.409 255.109 113.975 253 122 253C114.591 249.891 103.025 252 95 252z"/><path style="fill:#002050; stroke:none;" d="M132 252L133 253L132 252z"/><path style="fill:#0d1a59; stroke:none;" d="M172 252L173 253L172 252z"/><path style="fill:currentColor; stroke:none;" d="M296 252L296 260C297.161 257.23 297.161 254.77 296 252z"/><path style="fill:#0a1d4d; stroke:none;" d="M149 253L150 254L149 253z"/><path style="fill:var(--fill-color);" d="M150.001 253.576C138.323 256.78 137.796 279.019 152 275.551C164.464 272.507 164.675 249.551 150.001 253.576z"/><path style="fill:#0d215c; stroke:none;" d="M273 253C274.248 253.685 274.548 253.749 276 254C274.752 253.315 274.452 253.251 273 253M277 253C278.248 253.685 278.548 253.749 280 254C278.752 253.315 278.452 253.251 277 253z"/><path style="fill:currentColor; stroke:none;" d="M322 253C325.163 254.327 328.586 254 332 254C328.837 252.673 325.415 253 322 253z"/><path style="fill:#081f55; stroke:none;" d="M332 253L333 254L332 253z"/><path style="fill:#0e2060; stroke:none;" d="M242 254L243 255L242 254z"/><path style="fill:currentColor; stroke:none;" d="M268 254L269 255L268 254z"/><path style="fill:#0d215c; stroke:none;" d="M159 255L160 256L159 255z"/><path style="fill:#0f1f5d; stroke:none;" d="M264 255L265 256L264 255z"/><path style="fill:#0b2055; stroke:none;" d="M363 255L364 256L363 255z"/><path style="fill:#0d1f58; stroke:none;" d="M204 256L205 257L204 256z"/><path style="fill:#0c1746; stroke:none;" d="M230 256L231 257L230 256z"/><path style="fill:#0c1849; stroke:none;" d="M376 256L377 257L376 256z"/><path style="fill:#0e1c50; stroke:none;" d="M202 257L203 258L202 257z"/><path style="fill:#10256b; stroke:none;" d="M161 259L162 260L161 259z"/><path style="fill:#08174d; stroke:none;" d="M307 259L308 260L307 259z"/><path style="fill:#152f7d; stroke:none;" d="M174 260L174 263C174.696 261.446 174.696 261.554 174 260z"/><path style="fill:#081a44; stroke:none;" d="M217 260L218 261L217 260z"/><path style="fill:#082058; stroke:none;" d="M280 260L281 261L280 260z"/><path style="fill:#0d2257; stroke:none;" d="M119 262L120 263L119 262z"/><path style="fill:#112262; stroke:none;" d="M197 262L198 263L197 262z"/><path style="fill:#08174b; stroke:none;" d="M218 262L219 263L218 262z"/><path style="fill:#16328c; stroke:none;" d="M140 263L140 269C140.951 266.715 140.951 265.285 140 263z"/><path style="fill:#0a1447; stroke:none;" d="M182 264L183 265L182 264z"/><path style="fill:#0f1e5a; stroke:none;" d="M196 264L197 265L196 264z"/><path style="fill:#0f1f5c; stroke:none;" d="M195 266L196 267L195 266z"/><path style="fill:#0c1746; stroke:none;" d="M222 266L223 267L222 266z"/><path style="fill:#0c2363; stroke:none;" d="M294 267L295 268L294 267z"/><path style="fill:#102162; stroke:none;" d="M318 267L319 268L318 267z"/><path style="fill:#0a1447; stroke:none;" d="M77 268L78 269L77 268z"/><path style="fill:var(--fill-color); stroke:none;" d="M270.059 268.742C262.661 271.839 268.184 279.942 274.96 276.91C284.387 272.691 278.118 265.369 270.059 268.742z"/><path style="fill:#0e2566; stroke:none;" d="M90 269L91 270L90 269z"/><path style="fill:#0c1d57; stroke:none;" d="M194 269L195 270L194 269z"/><path style="fill:#0a1d52; stroke:none;" d="M228 269L229 270L228 269z"/><path style="fill:#122365; stroke:none;" d="M368 269L369 270L368 269z"/><path style="fill:currentColor; stroke:none;" d="M492.225 269.762C487.437 271.784 489.869 278.946 494.945 277.338C500.692 275.517 497.791 267.41 492.225 269.762z"/><path style="fill:#132b73; stroke:none;" d="M343.333 270.667C343.278 270.722 343.222 271.778 343.667 271.333C343.722 271.278 343.778 270.222 343.333 270.667z"/><path style="fill:#071b4a; stroke:none;" d="M317 271L318 272L317 271z"/><path style="fill:#00175d; stroke:none;" d="M498 271L499 272L498 271z"/><path style="fill:#0d215c; stroke:none;" d="M128 272L129 273L128 272z"/><path style="fill:#0c1751; stroke:none;" d="M157 272L158 273L157 272z"/><path style="fill:#071547; stroke:none;" d="M89 273L90 274L89 273z"/><path style="fill:#0d1a4d; stroke:none;" d="M156 273L157 274L156 273z"/><path style="fill:#0f2461; stroke:none;" d="M171 273L172 274L171 273z"/><path style="fill:#11266a; stroke:none;" d="M265.333 273.667C265.278 273.722 265.222 274.778 265.667 274.333C265.722 274.278 265.778 273.222 265.333 273.667z"/><path style="fill:#102565; stroke:none;" d="M279 273L280 274L279 273z"/><path style="fill:#12236a; stroke:none;" d="M144 274L145 275L144 274z"/><path style="fill:#142d7d; stroke:none;" d="M252 274L252 277C252.696 275.446 252.696 275.554 252 274z"/><path style="fill:#0e2265; stroke:none;" d="M365 274L366 275L365 274z"/><path style="fill:#0f276c; stroke:none;" d="M129 275L130 276L129 275z"/><path style="fill:#091a58; stroke:none;" d="M277 275L278 276L277 275z"/><path style="fill:#081e4b; stroke:none;" d="M318 275L319 276L318 275z"/><path style="fill:#0b2260; stroke:none;" d="M192 276L193 277L192 276z"/><path style="fill:#0e1c63; stroke:none;" d="M211 276L212 277L211 276z"/><path style="fill:#0e2665; stroke:none;" d="M233 276L234 277L233 276z"/><path style="fill:#0c1f57; stroke:none;" d="M266 276L267 277L266 276z"/>
   <path d="M130 277L131 278L130 277z"/>
   <path d="M210 277L211 278L210 277z"/><path style="fill:#0e266a; stroke:none;" d="M291 278L292 279L291 278z"/>
   <path style="fill:currentColor; stroke:none;" d="M178 279L179 280L178 279z"/>
   <path d="M325 279L326 280L325 279z"/>
   <path d="M362 279L363 280L362 279z"/><path style="fill:#081848; stroke:none;" d="M344 280L345 281L344 280z"/><path style="fill:currentColor; stroke:none;" d="M386.847 281.286C384.534 281.092 382.378 282.702 380 282.608C377.835 282.523 375.482 280.998 373.319 281.731C367.937 283.555 374.167 288.519 377.005 288.863C380.249 289.255 384.129 288.679 386.847 286.772C388.759 285.43 390.574 281.599 386.847 281.286z"/><path style="fill:#0b1c55; stroke:none;" d="M133 281L134 282L133 281z"/><path style="fill:#112666; stroke:none;" d="M163 282L164 283L163 282z"/><path style="fill:#0d225d; stroke:none;" d="M277 282L276 284L278 284C278 282.147 278.3 282.65 277 282z"/><path style="fill:#071649; stroke:none;" d="M290 282L291 283L290 282z"/><path style="fill:#0b205a; stroke:none;" d="M214 283L215 284L214 283z"/><path style="fill:currentColor; stroke:none;" d="M487 316C480.439 321.985 471.29 327.529 462 325.315C457.798 324.313 453.553 321.666 453.036 316.999C452.434 311.561 455.523 305.36 456.38 300.004C456.801 297.377 457.056 294.292 453.856 293.478C448.303 292.064 446.712 297.922 445.793 302C443.207 313.477 441.611 327.416 434.073 336.907C430.139 341.858 422.924 342.641 420 348C436.533 347.989 444.312 338.662 450 324C459.427 336.081 478.756 336.051 489.816 325.671C495.377 320.451 497.81 313.117 499.859 306C500.711 303.04 502.652 299.228 502.357 296.109C502.015 292.503 497.31 291.217 494.818 293.607C491.008 297.261 490.311 303.825 486.532 307.887C485.179 309.341 482.725 311.717 480.606 310.168C478.466 308.603 479.437 305.033 480.106 303C481.944 297.416 486.065 291.46 492 289.743C495.979 288.592 499.182 291.129 502.995 291.562C504.838 291.772 507.793 291.353 507.793 288.896C507.793 282.635 495.968 282.847 492 283.04C480.988 283.575 472.414 292.679 469.761 303C468.211 309.03 469.494 317.726 477.004 318.731C480.577 319.21 483.876 317.458 487 316z"/><path style="fill:#0f1d58; stroke:none;" d="M137 284L138 285L137 284z"/><path style="fill:#0b1b4c; stroke:none;" d="M160 284L161 285L160 284z"/><path style="fill:#0a1e55; stroke:none;" d="M216 284L217 285L216 284z"/><path style="fill:#101f58; stroke:none;" d="M359 284L360 285L359 284z"/><path style="fill:#0a194c; stroke:none;" d="M139 285L140 286L139 285z"/><path style="fill:#0b1b47; stroke:none;" d="M158 285L159 286L158 285z"/><path style="fill:#0a1a4e; stroke:none;" d="M238 285L239 286L238 285z"/><path style="fill:#0f1e55; stroke:none;" d="M270 286L271 287L270 286z"/><path style="fill:#132c7b; stroke:none;" d="M277 286C280.697 287.552 285.017 287 289 287C285.303 285.448 280.983 286 277 286z"/><path style="fill:#10296b; stroke:none;" d="M387 286L388 287L387 286z"/><path style="fill:#102163; stroke:none;" d="M372 287L373 288L372 287z"/><path style="fill:#001c55; stroke:none;" d="M508 287L509 288L508 287z"/><path style="fill:currentColor; stroke:none;" d="M382 295L372 295C370.034 304.498 368.309 323.056 356 323C356.975 319.7 358.348 313.382 355.397 310.643C352.985 308.404 348.758 310.227 346 310.739C338.865 312.065 331.978 311.245 331 320C337.211 320 343.18 320.456 349 318C341.238 335.985 316.529 342.75 301.174 329.471C295.885 324.897 295.872 314.146 289 313C289 322.679 290.258 330.923 298.04 337.671C312.395 350.119 344.896 348.086 353 329C360.822 331.851 369.03 331.308 373 323C386.26 339.984 427.728 333.488 432.61 311C436.459 293.267 415.526 286.474 403 295C403.816 290.133 398.905 285.404 394.854 290.322C390.627 295.453 389.926 306.621 388.374 313C387.814 315.302 386.367 319.125 388.617 320.971C390.727 322.702 394.041 321.772 395.442 319.682C399.097 314.23 398.258 307.16 403.214 302.214C408.963 296.476 423.064 296.319 423.326 307C423.442 311.713 419.416 315.896 415.996 318.61C407.438 325.401 386.753 330.436 378.333 320.775C373.52 315.254 381.113 301.582 382 295z"/><path style="fill:#0b205a; stroke:none;" d="M491.667 289.333C491.222 289.778 492.278 289.722 492.333 289.667C492.778 289.222 491.722 289.278 491.667 289.333z"/><path style="fill:#132b74; stroke:none;" d="M495.667 289.333C495.222 289.778 496.278 289.722 496.333 289.667C496.778 289.222 495.722 289.278 495.667 289.333z"/><path style="fill:#0e2464; stroke:none;" d="M355 290L356 291L355 290z"/><path style="fill:#0b2157; stroke:none;" d="M489 290L490 291L489 290z"/><path style="fill:#002050; stroke:none;" d="M331 292L332 293L331 292z"/><path style="fill:#0f1f57; stroke:none;" d="M486 292L487 293L486 292z"/>
   <path style="fill:currentColor; stroke:none;" d="M504.667 292.333C504.222 292.778 505.278 292.722 505.333 292.667C505.778 292.222 504.722 292.278 504.667 292.333z"/><path style="fill:#0e2464; stroke:none;" d="M483 295L484 296L483 295z"/><path style="fill:#0a1f57; stroke:none;" d="M349 296L350 297L349 296z"/><path style="fill:#0f1e5a; stroke:none;" d="M417 298L418 299L417 298z"/><path style="fill:currentColor; stroke:none;" d="M82 299L83 300L82 299z"/><path style="fill:#0a1d4e; stroke:none;" d="M456 299L457 300L456 299z"/><path style="fill:#08225d; stroke:none;" d="M491 300L492 301L491 300z"/><path style="fill:#0c1746; stroke:none;" d="M422 302L423 303L422 302z"/><path style="fill:#071649; stroke:none;" d="M81 303L82 304L81 303z"/><path style="fill:#0c1e5b; stroke:none;" d="M500 303L501 304L500 303z"/><path style="fill:#0a1f52; stroke:none;" d="M489 304L490 305L489 304z"/><path style="fill:#0c1847; stroke:none;" d="M399 307L400 308L399 307z"/><path style="fill:#0c1855; stroke:none;" d="M486 308L487 309L486 308z"/><path style="fill:currentColor; stroke:none;" d="M66 309L67 310L66 309z"/><path style="fill:#102463; stroke:none;" d="M79 310L80 311L79 310z"/><path style="fill:#0f2767; stroke:none;" d="M398 310L399 311L398 310z"/><path style="fill:#091b52; stroke:none;" d="M443 312L444 313L443 312z"/><path style="fill:#142b77; stroke:none;" d="M488 313L487 315L489 315C489 313.147 489.3 313.65 488 313z"/><path style="fill:#071649; stroke:none;" d="M497 313L498 314L497 313M78 314L79 315L78 314z"/><path style="fill:#112260; stroke:none;" d="M431 314L432 315L431 314z"/><path style="fill:#112266; stroke:none;" d="M470 314L471 315L470 314z"/><path style="fill:#162c85; stroke:none;" d="M288.333 315.667C288.278 315.722 288.222 316.778 288.667 316.333C288.722 316.278 288.778 315.222 288.333 315.667z"/><path style="fill:#0c1746; stroke:none;" d="M376 315L377 316L376 315z"/><path style="fill:#070d28; stroke:none;" d="M487 315L488 316L487 315z"/><path style="fill:#0a1447; stroke:none;" d="M387 316L388 317L387 316z"/><path style="fill:#0b2260; stroke:none;" d="M430 316L431 317L430 316z"/><path style="fill:#0a1e55; stroke:none;" d="M485 316L486 317L485 316z"/><path style="fill:var(--fill-color); stroke:none;" d="M486 316L487 317L486 316z"/><path style="fill:#0c1b4e; stroke:none;" d="M348.333 318.667C348.278 318.722 348.222 319.778 348.667 319.333C348.722 319.278 348.778 318.222 348.333 318.667z"/><path style="fill:#0b2159; stroke:none;" d="M428 319L429 320L428 319z"/><path style="fill:#13256b; stroke:none;" d="M494 319L495 320L494 319z"/><path style="fill:#122c7a; stroke:none;" d="M335 320C336.506 320.683 337.315 320.826 339 321C337.494 320.317 336.685 320.174 335 320z"/><path style="fill:#0c2465; stroke:none;" d="M395 320L396 321L395 320z"/><path style="fill:#142f83; stroke:none;" d="M390 322C391.506 322.683 392.315 322.826 394 323C392.494 322.317 391.685 322.174 390 322z"/><path style="fill:#0f1f57; stroke:none;" d="M425 322L426 323L425 322z"/><path style="fill:#0f2262; stroke:none;" d="M492 322L493 323L492 322z"/><path style="fill:#0c245f; stroke:none;" d="M358 323L359 324L358 323z"/><path style="fill:#081d5a; stroke:none;" d="M373 323L374 324L373 323z"/><path style="fill:#0c2461; stroke:none;" d="M381 323L382 324L381 323z"/><path style="fill:#0c1849; stroke:none;" d="M296 324L297 325L296 324z"/><path style="fill:#112260; stroke:none;" d="M75 325L76 326L75 325z"/><path style="fill:#173491; stroke:none;" d="M388 325C389.506 325.683 390.315 325.826 392 326C390.494 325.317 389.685 325.174 388 325z"/><path style="fill:#0f266b; stroke:none;" d="M448 327L449 328L448 327z"/><path style="fill:#0c1855; stroke:none;" d="M299 328L300 329L299 328z"/><path style="fill:#0e2260; stroke:none;" d="M415 328L416 329L415 328z"/><path style="fill:#001e4b; stroke:none;" d="M300 329L301 330L300 329z"/><path style="fill:#0d1b51; stroke:none;" d="M341 329L342 330L341 329z"/><path style="fill:#050f31; stroke:none;" d="M353.667 329.333C353.222 329.778 354.278 329.722 354.333 329.667C354.778 329.222 353.722 329.278 353.667 329.333z"/><path style="fill:#0c1746; stroke:none;" d="M484 329L485 330L484 329z"/><path style="fill:#0f225d; stroke:none;" d="M364 330L365 331L364 330z"/><path style="fill:#0e1c53; stroke:none;" d="M456 330L457 331L456 330z"/><path style="fill:#0b1c4a; stroke:none;" d="M482 330L483 331L482 330z"/><path style="fill:#132b74; stroke:none;" d="M403.667 331.333C403.222 331.778 404.278 331.722 404.333 331.667C404.778 331.222 403.722 331.278 403.667 331.333z"/><path style="fill:#071649; stroke:none;" d="M293 332L294 333L293 332z"/><path style="fill:#071a48; stroke:none;" d="M461 332L462 333L461 332z"/><path style="fill:#0d2361; stroke:none;" d="M350 333L351 334L350 333z"/><path style="fill:#142e80; stroke:none;" d="M466 333C468.332 333.985 470.457 333.981 473 334C470.668 333.015 468.543 333.019 466 333z"/><path style="fill:#112266; stroke:none;" d="M312 335L313 336L312 335z"/><path style="fill:#0e2260; stroke:none;" d="M346 337L347 338L346 337z"/><path style="fill:#13256b; stroke:none;" d="M442 338L443 339L442 338z"/><path style="fill:#0b2157; stroke:none;" d="M300 339L301 340L300 339z"/><path style="fill:#0f276c; stroke:none;" d="M343 339L344 340L343 339z"/><path style="fill:#0b206a; stroke:none;" d="M432 339L433 340L432 339z"/><path style="fill:#0e225b; stroke:none;" d="M337 342L338 343L337 342z"/><path style="fill:#0a1e55; stroke:none;" d="M334 343L335 344L334 343z"/><path style="fill:#0f2364; stroke:none;" d="M437 343L438 344L437 343z"/><path style="fill:#132c7b; stroke:none;" d="M318 345C320.052 345.874 321.747 345.953 324 346C321.948 345.126 320.253 345.047 318 345z"/><path style="fill:#112164; stroke:none;" d="M434 345L435 346L434 345z"/><path style="fill:currentColor; stroke:none;" d="M315.233 350.16C311.799 352.102 314.439 356.19 317.059 357.254C320.287 358.565 325.03 357.6 327.941 355.86C329.445 354.961 333.304 350.802 329.663 349.877C327.177 349.246 324.615 351.538 322.039 351.362C319.848 351.212 317.412 348.929 315.233 350.16z"/><path style="fill:#0c1751; stroke:none;" d="M313 350L314 351L313 350z"/><path style="fill:#091c55; stroke:none;" d="M324 351L325 352L324 351z"/>
</svg>